<?xml version="1.0" encoding="UTF-8"?>
<svg xmlns="http://www.w3.org/2000/svg" xmlns:xlink="http://www.w3.org/1999/xlink" width="800pt" height="500pt" viewBox="0 0 800 500" version="1.1">
<defs>
<linearGradient id="linear0" gradientUnits="userSpaceOnUse" x1="31.7969" y1="0.1407" x2="31.7969" y2="40.5044" gradientTransform="matrix(12.406948,0,0,12.406948,5.459057,0)">
<stop offset="0" style="stop-color:rgb(24.313725%,36.862745%,63.137255%);stop-opacity:1;"/>
<stop offset="1" style="stop-color:rgb(15.686275%,39.215686%,19.607843%);stop-opacity:1;"/>
</linearGradient>
</defs>
<g id="surface1">
<path style=" stroke:none;fill-rule:evenodd;fill:url(#linear0);" d="M 695.285156 0 L 104.714844 0 C 50.125 0 5.460938 44.664062 5.460938 99.253906 L 5.460938 400.746094 C 5.460938 455.335938 50.125 500 104.714844 500 L 695.285156 500 C 749.875 500 794.539062 455.335938 794.539062 400.746094 L 794.539062 99.253906 C 794.539062 44.664062 749.875 0 695.285156 0 Z M 275.929688 250.621094 C 321.835938 250.621094 367.742188 250.621094 412.40625 250.621094 C 411.167969 281.636719 400 313.894531 376.425781 336.226562 C 354.09375 358.5625 321.835938 369.726562 290.820312 373.449219 C 249.875 377.171875 203.96875 369.726562 171.710938 342.433594 C 154.34375 328.785156 143.175781 310.171875 135.730469 289.082031 C 129.527344 266.75 127.046875 241.933594 130.769531 218.363281 C 134.492188 197.269531 143.175781 176.179688 156.824219 158.808594 C 166.75 147.644531 177.914062 138.957031 190.324219 131.511719 C 215.136719 117.867188 244.914062 112.902344 273.449219 112.902344 C 285.855469 112.902344 298.261719 114.144531 310.671875 116.625 C 325.558594 120.347656 340.445312 125.308594 354.09375 132.753906 C 376.425781 145.160156 393.796875 166.253906 402.480469 189.828125 C 408.683594 204.714844 411.167969 219.601562 412.40625 234.492188 C 366.5 234.492188 320.59375 234.492188 275.929688 234.492188 C 275.929688 240.695312 275.929688 245.65625 275.929688 250.621094 Z M 666.75 325.0625 C 665.507812 328.785156 664.269531 331.265625 663.027344 334.988281 C 656.824219 346.152344 646.898438 356.078125 635.730469 361.042969 C 628.289062 363.523438 619.601562 364.765625 610.917969 366.003906 C 550.125 366.003906 488.089844 366.003906 427.296875 366.003906 C 427.296875 359.800781 427.296875 352.355469 427.296875 346.152344 C 427.296875 313.894531 427.296875 282.878906 427.296875 250.621094 C 476.921875 250.621094 525.308594 250.621094 574.9375 250.621094 C 591.066406 250.621094 607.195312 249.378906 623.324219 253.101562 C 638.214844 255.582031 650.621094 264.269531 658.066406 276.675781 C 669.230469 290.324219 670.472656 308.933594 666.75 325.0625 Z M 667.988281 189.828125 C 665.507812 203.472656 658.066406 214.640625 646.898438 223.324219 C 634.492188 233.25 619.601562 235.730469 603.472656 235.730469 C 545.160156 235.730469 485.609375 235.730469 427.296875 235.730469 C 427.296875 219.601562 427.296875 204.714844 427.296875 188.585938 C 427.296875 172.457031 427.296875 156.328125 427.296875 140.199219 C 427.296875 133.996094 427.296875 126.550781 427.296875 120.347656 C 458.3125 120.347656 488.089844 120.347656 519.105469 120.347656 C 541.4375 120.347656 562.53125 120.347656 584.863281 120.347656 C 596.03125 120.347656 607.195312 120.347656 618.363281 121.589844 C 635.730469 122.828125 650.621094 132.753906 660.546875 147.644531 C 667.988281 160.050781 670.472656 176.179688 667.988281 189.828125 Z M 667.988281 189.828125 "/>
</g>
</svg>
