<?xml version="1.0" encoding="UTF-8" standalone="no"?>
<!DOCTYPE svg PUBLIC "-//W3C//DTD SVG 1.1//EN" "http://www.w3.org/Graphics/SVG/1.1/DTD/svg11.dtd">
<svg width="100%" height="100%" viewBox="0 0 1080 1080" version="1.1" xmlns="http://www.w3.org/2000/svg" xmlns:xlink="http://www.w3.org/1999/xlink" xml:space="preserve" xmlns:serif="http://www.serif.com/" style="fill-rule:evenodd;clip-rule:evenodd;stroke-linejoin:round;stroke-miterlimit:2;">
    <g transform="matrix(0.151296,0,0,0.151296,3021.42,-71109.4)">
        <path d="M-17273.3,471925C-17124.8,472026 -16942.7,472084 -16736,472121C-16511.5,472161 -16256.8,472178 -15987.4,472210C-15230.8,472302 -14354.2,472524 -13731.7,473828C-13784.5,474384 -14010.5,474926 -14409.5,475368L-17594.5,472183C-17491.6,472088 -17384.1,472002 -17273.3,471925ZM-16143.5,476239C-17447.1,475617 -17669.6,474740 -17761,473984C-17793.5,473714 -17810.3,473460 -17850.6,473235C-17887.6,473028 -17945.2,472846 -18046.5,472698C-17968.9,472587 -17882.8,472480 -17788.3,472377L-14603.2,475562C-15044.7,475961 -15587.4,476187 -16143.5,476239ZM-18167.2,472884C-18108.3,472996 -18073.2,473127 -18047.4,473270C-18007.8,473492 -17991.6,473742 -17959.5,474008C-17870,474749 -17663.6,475598 -16557.1,476247C-17114.3,476214 -17663.1,476008 -18115.9,475630C-18711,474895 -18713.4,473799 -18167.2,472884ZM-13724.2,473414C-14373.1,472308 -15222.4,472101 -15963.4,472012C-16228.7,471980 -16479.6,471963 -16700.7,471924C-16844.4,471898 -16975.1,471863 -17086.9,471804C-16171.7,471258 -15076,471260 -14341.3,471855C-13962.7,472308 -13757,472857 -13724.2,473414ZM-18213,472528C-18340.6,472448 -18491.8,472441 -18637.3,472471C-18722.2,472488 -18804.6,472518 -18876.6,472551C-18762.4,472273 -18599.5,472011 -18388.1,471777L-17953,472212C-18047.2,472314 -18133.9,472419 -18213,472528ZM-17442.8,471758C-17551.7,471837 -17657.5,471924 -17759.3,472018L-18194.3,471583C-17960.4,471372 -17698,471209 -17420.3,471095C-17452.7,471167 -17483,471249 -17500.4,471334C-17530.2,471479 -17523.1,471631 -17442.8,471758ZM-17141,470997C-16490.6,470811 -15783.1,470875 -15171.7,471190C-15851.7,471064 -16612.4,471220 -17276.9,471645C-17324.7,471563 -17323.3,471466 -17304.4,471374C-17271.1,471211 -17181.7,471060 -17141,470997ZM-18973.8,472830C-18911,472789 -18759.7,472700 -18597.1,472667C-18505,472648 -18407.8,472647 -18326.1,472694C-18750.9,473359 -18907.6,474119 -18781.6,474799C-19096.4,474188 -19160.4,473481 -18973.8,472830Z" style="fill:rgb(247,239,222);"/>
    </g>
</svg>
