<?xml version="1.0" encoding="UTF-8" standalone="no"?>
<!DOCTYPE svg PUBLIC "-//W3C//DTD SVG 1.1//EN" "http://www.w3.org/Graphics/SVG/1.1/DTD/svg11.dtd">
<svg width="100%" height="100%" viewBox="0 0 6954 8483" version="1.1" xmlns="http://www.w3.org/2000/svg" xmlns:xlink="http://www.w3.org/1999/xlink" xml:space="preserve" xmlns:serif="http://www.serif.com/" style="fill-rule:evenodd;clip-rule:evenodd;stroke-linejoin:round;stroke-miterlimit:2;">
    <g transform="matrix(1,0,0,1,236045,-403059)">
        <g transform="matrix(1.84854,0,0,1.84854,146978,111824)">
            <path d="M-207203,160050L-207203,157549L-205529,157549L-205529,157968C-205879,158005 -206201,158138 -206467,158340C-206237,158621 -205906,158815 -205529,158866L-205529,159282C-206024,159230 -206462,158985 -206767,158625C-207004,158904 -207161,159253 -207203,159637L-205529,159637L-205529,160050L-207203,160050ZM-205529,162138L-207203,162138L-207203,160050C-207161,160433 -207004,160783 -206767,161062C-206462,160702 -206024,160457 -205529,160405L-205529,160821C-205906,160872 -206237,161066 -206467,161347C-206201,161549 -205879,161682 -205529,161719L-205529,162138Z" style="fill:rgb(66,38,128);"/>
        </g>
        <g transform="matrix(1,0,0,1,764.472,56119)">
            <path d="M-232950,352989C-232254,353085 -231642,353443 -231216,353961C-231709,354335 -232303,354581 -232950,354650L-232950,352989ZM-232950,351565L-229856,351565C-229933,352274 -230223,352919 -230661,353435C-231225,352769 -232035,352317 -232950,352220L-232950,351565ZM-232950,347716C-232303,347784 -231709,348030 -231216,348404C-231642,348922 -232254,349281 -232950,349376L-232950,347716ZM-232950,350145C-232035,350048 -231225,349596 -230661,348930C-230223,349447 -229933,350092 -229856,350802L-232950,350802L-232950,350145Z" style="fill:rgb(245,73,82);"/>
        </g>
    </g>
</svg>
