<?xml version="1.0" encoding="UTF-8" standalone="no"?><!DOCTYPE svg PUBLIC "-//W3C//DTD SVG 1.1//EN" "http://www.w3.org/Graphics/SVG/1.1/DTD/svg11.dtd"><svg width="100%" height="100%" viewBox="0 0 1255 119" version="1.1" xmlns="http://www.w3.org/2000/svg" xmlns:xlink="http://www.w3.org/1999/xlink" xml:space="preserve" xmlns:serif="http://www.serif.com/" style="fill-rule:evenodd;clip-rule:evenodd;stroke-linejoin:round;stroke-miterlimit:2;"><path d="M411.218,1.475c-4.1,0.8 -11.1,2.1 -15.5,2.9c-15.6,2.9 -35.2,7.1 -42.1,9c-2.8,0.8 -5.9,1.4 -6.9,1.4c-1,-0 -4.1,0.6 -6.9,1.4c-4.8,1.4 -8.1,2.2 -23.8,6.2c-3.5,0.8 -7.5,1.9 -9,2.3c-2.9,0.9 -6.8,-1 -6.8,-3.3c-0,-0.7 -1.3,-2.5 -2.9,-4c-2.7,-2.6 -3.5,-2.8 -8.3,-2.3c-5.7,0.5 -13.9,2.1 -22.8,4.2c-3,0.7 -8.9,2.1 -13,3c-10,2.2 -26.4,6.2 -37,9.2c-3,0.8 -8,2.2 -11,3c-18.5,5.1 -24.9,6.9 -31.6,9c-6.1,1.9 -8.4,1.3 -8.4,-2.2c-0,-3.7 -3.6,-10.2 -6.1,-11c-1.9,-0.6 -6.1,0.8 -20.4,7c-1.6,0.7 -6.6,2.8 -11,4.5c-4.4,1.8 -9.3,3.8 -11,4.5c-1.6,0.7 -4.8,2 -7,2.8c-2.2,0.8 -6,2.3 -8.5,3.2c-2.5,0.9 -6.3,2.4 -8.5,3.2c-2.2,0.8 -5.5,2.1 -7.3,2.9c-1.8,0.8 -4,1.4 -5,1.4c-0.9,-0 -2.6,0.7 -3.6,1.5c-1.1,0.8 -2.9,1.5 -4.1,1.5c-1.2,-0 -2.5,0.4 -3,0.9c-0.6,0.5 -2.6,1.4 -4.5,1.9c-3.4,1 -6.4,2 -14,4.7c-1.9,0.7 -6.2,2.1 -9.5,3c-3.3,1 -7.8,2.4 -10,3.1c-2.2,0.7 -8.2,2.1 -13.2,3l-9.3,1.8l-3,-2.9c-2.8,-2.7 -3.1,-2.8 -4.7,-1.2c-1.3,1.2 -1.6,3.3 -1.5,8.6c0.1,8.5 2.6,14 7.7,17c6.2,3.6 20.8,2.7 39.1,-2.5c8.7,-2.4 10,-2.1 11.9,3.3c4.1,11.9 7.3,15.3 13.9,15.3c4.5,-0 16.6,-2 23.6,-3.9c2.5,-0.7 7.2,-1.9 10.5,-2.8c3.3,-0.8 8.4,-2.1 11.2,-2.9c2.9,-0.8 7.7,-2 10.5,-2.8c7.6,-2.1 18.7,-5 34.8,-9.2c3.6,-0.9 8.5,-2.2 11,-2.9c2.5,-0.7 8.1,-2 12.5,-3c4.4,-0.9 10,-2.3 12.5,-3c9.7,-2.8 14,-2.4 14,1.3c-0,3.7 5.8,11.9 9.7,13.7c3.6,1.7 4.1,1.7 13.3,-0c5.2,-0.9 11.2,-2.3 13.3,-3.1c2,-0.8 4.7,-1.4 5.8,-1.4c1.2,-0 4.2,-0.7 6.8,-1.5c2.5,-0.8 7.5,-2.2 11.1,-3.1c9.3,-2.4 23.7,-6.2 33,-8.8c3,-0.8 7.5,-1.8 10,-2.1l4.5,-0.7l3.3,7.1c4.8,10.4 7.7,12.1 20.7,12.1c5.5,-0 13.8,-0.7 18.5,-1.5c4.7,-0.9 12.6,-2.2 17.5,-3.1c5,-0.8 12.5,-2.1 16.8,-2.9c4.2,-0.8 11.2,-2.1 15.5,-2.9c4.2,-0.8 10.4,-2 13.7,-2.6c12.7,-2.3 17.6,-3 18.4,-2.6c0.5,0.3 2.1,3 3.6,6c3.5,6.9 5.7,9 11.8,11c7.7,2.6 20.8,1.8 48.7,-2.9c4.7,-0.8 10.1,-1.6 12,-1.9c4.2,-0.5 14.7,-2.2 25,-4.1c4.1,-0.8 11.7,-2.1 16.8,-2.9c5,-0.9 13.4,-2.3 18.5,-3.2c5,-0.8 12.5,-2.2 16.5,-3c4,-0.8 8.7,-1.4 10.5,-1.4c1.8,-0 5.6,-0.7 8.4,-1.4c7,-1.9 9.1,-1.2 10.3,3.4c1.3,4.9 5.9,11.7 9.6,14.1c2.5,1.6 4.8,1.9 18.4,1.9c8.8,-0 19.8,-0.6 25.5,-1.5c5.5,-0.8 15.4,-2.2 22,-3.1c6.6,-0.8 15.8,-2.2 20.5,-2.9c4.7,-0.8 13.9,-2.1 20.5,-3c6.6,-0.9 15.3,-2.3 19.3,-3.1c4,-0.8 8.6,-1.4 10.3,-1.4c1.7,-0 7,-0.7 11.8,-1.6c17.4,-3.1 20.7,-3.7 27.6,-4.5c3.9,-0.4 8.6,-1.1 10.5,-1.4l3.6,-0.7l2.3,5.9c3.6,8.7 8.1,13.7 13.6,15.3c7.8,2.2 39.7,-0.1 73,-5.1c3.9,-0.6 10.8,-1.5 15.5,-1.9c4.7,-0.5 10.9,-1.3 13.9,-1.9c8.6,-1.8 8.7,-1.7 12.1,5.1c5.8,11.8 10.3,14.2 27,15.1c11.3,0.6 46.6,-0.6 63.5,-2.2c6.6,-0.6 19.2,-1.8 28,-2.6c8.8,-0.9 21.6,-2.2 28.5,-3c6.9,-0.9 14.3,-1.5 16.5,-1.5c2.2,-0 9.2,-0.7 15.5,-1.5c6.3,-0.8 19.6,-2.1 29.5,-3c9.9,-0.8 22.3,-2 27.5,-2.6c5.2,-0.5 19.6,-1.4 32,-2c12.4,-0.5 23,-1.2 23.7,-1.4c0.7,-0.2 2.1,-2.2 3.3,-4.4c1.6,-3.3 2,-5.9 2,-14.8c-0,-6 -0.5,-12.4 -1,-14.3c-0.6,-1.9 -1.5,-5.3 -2,-7.5c-2.3,-10.6 -7.4,-19.6 -12.1,-21.6c-3.5,-1.4 -36,-0 -60.4,2.6c-7.7,0.9 -15.6,1.5 -17.5,1.5c-3.3,-0 -10,0.7 -44.8,4.5c-7.3,0.9 -13.7,1.3 -14.2,1c-0.5,-0.3 -1.7,-3.1 -2.6,-6.3c-3.4,-11.6 -7.4,-19.2 -11.4,-21.5c-2.2,-1.3 -4,-1.3 -15,-0.1c-6.9,0.8 -18.6,2.1 -26,3c-7.4,0.8 -17.1,1.9 -21.5,2.5c-4.4,0.5 -12.4,1.4 -17.8,1.9c-5.4,0.5 -10.1,1.2 -10.6,1.4c-0.5,0.3 -5.5,1 -11.2,1.6c-5.7,0.5 -12.3,1.2 -14.5,1.6c-3.8,0.6 -4.3,0.4 -4.9,-1.7c-1.5,-4.9 -6.6,-14.1 -8.7,-15.9c-2,-1.7 -4.1,-1.9 -16.8,-1.9c-8,-0 -19,0.4 -24.5,1c-5.5,0.5 -15.4,1.4 -22,1.8c-16.1,1.2 -42.5,4.3 -62,7.2c-3.8,0.6 -10.1,1.5 -14,1.9c-3.8,0.4 -10.4,1.3 -14.5,2c-21.2,3.3 -27.2,4.2 -34.5,5.6c-4.4,0.8 -8.6,1.4 -9.3,1.4c-0.7,-0 -2.8,-3.3 -4.6,-7.4c-2.3,-4.9 -4.5,-8.2 -7,-10.1l-3.6,-2.7l-15.2,1.1c-8.4,0.6 -18.4,1.3 -22.3,1.5c-3.8,0.2 -11.5,0.9 -17,1.5c-5.5,0.6 -16.1,1.8 -23.5,2.7c-7.4,0.8 -17.1,2.2 -21.5,3c-4.4,0.8 -9.3,1.4 -10.9,1.4c-1.5,-0 -6.5,0.7 -11,1.5c-4.4,0.8 -12.5,2.1 -17.8,3c-22.6,3.5 -29.7,4.7 -36.3,6c-6.7,1.4 -11,1.8 -14.7,1.6c-1,-0.1 -2,-1.2 -2.5,-2.9c-1.1,-4.4 -4.4,-11.5 -7,-15c-2.1,-2.9 -2.9,-3.2 -7.4,-3.2c-2.8,-0 -8.9,0.7 -13.7,1.5c-4.8,0.9 -13,2.3 -18.2,3.1c-11.8,1.9 -24.2,4.1 -34.2,6c-4.3,0.7 -11.5,2.1 -16,2.9c-4.6,0.9 -10.3,2 -12.7,2.6c-5.1,1.1 -6.6,0.3 -7.6,-4.3c-1.2,-5.3 -4.4,-11.5 -7.7,-14.7c-3.6,-3.5 -5,-3.6 -16.8,-1.4Z" style="fill:url(#_Linear1);fill-rule:nonzero;"/><defs><linearGradient id="_Linear1" x1="0" y1="0" x2="1" y2="0" gradientUnits="userSpaceOnUse" gradientTransform="matrix(1254.22,0,0,1254.22,-1.42109e-14,59.3874)"><stop offset="0" style="stop-color:#422680;stop-opacity:1"/><stop offset="1" style="stop-color:#f54952;stop-opacity:1"/></linearGradient></defs></svg>